<?xml version="1.0" encoding="UTF-8"?>
<svg width="19px" height="33px" viewBox="0 0 19 33" version="1.1" xmlns="http://www.w3.org/2000/svg" xmlns:xlink="http://www.w3.org/1999/xlink">
    <!-- Generator: Sketch 48.2 (47327) - http://www.bohemiancoding.com/sketch -->
    <title>phone</title>
    <desc>Created with Sketch.</desc>
    <defs></defs>
    <g id="phone" stroke="none" stroke-width="1" fill="none" fill-rule="evenodd">
        <g fill="#4A4A4A" fill-rule="nonzero">
            <path d="M0,2.76305085 L0,30.2369492 C1.928616e-15,31.76294 1.20064438,33 2.68171429,33 L16.3182857,33 C17.7993556,33 19,31.76294 19,30.2369492 L19,2.76305085 C19,1.23706 17.7993556,0 16.3182857,0 L2.68171429,0 C1.20064438,0 1.928616e-15,1.23706 0,2.76305085 Z M17.9142857,26.2881356 L1.08571429,26.2881356 L1.08571429,5.45338983 L17.9142857,5.45338983 L17.9142857,26.2881356 Z M16.3182857,31.8813559 L2.68171429,31.8813559 C1.80026782,31.8813559 1.08571429,31.1451299 1.08571429,30.2369492 L1.08571429,27.4067797 L17.9142857,27.4067797 L17.9142857,30.2369492 C17.9142857,31.1451299 17.1997322,31.8813559 16.3182857,31.8813559 Z M2.68171429,1.11864407 L16.3182857,1.11864407 C17.1997322,1.11864407 17.9142857,1.85487006 17.9142857,2.76305085 L17.9142857,4.33474576 L1.08571429,4.33474576 L1.08571429,2.76305085 C1.08571429,1.85487006 1.80026782,1.11864407 2.68171429,1.11864407 Z" id="Shape"></path>
            <path d="M5.17252946,17.8303901 C5.40002551,18.0565366 5.76744015,18.0565366 5.99493621,17.8303901 L11.8276082,11.9977154 C12.0563202,11.7706139 12.0576258,11.401104 11.8305245,11.1723919 C11.6034231,10.9436798 11.2339134,10.9423741 11.0052014,11.1694756 L5.17252946,17.0021503 C5.0621096,17.1116684 5,17.2607492 5,17.4162702 C5,17.5717912 5.0621096,17.7208719 5.17252946,17.8303901 Z" id="Shape"></path>
            <path d="M4.15836221,13.8416378 C4.37077192,14.0527874 4.71382155,14.0527874 4.92623126,13.8416378 L8.86904825,9.8988208 C9.05408661,9.68274992 9.04164576,9.36066213 8.84049181,9.15950819 C8.63933787,8.95835424 8.31725008,8.94591339 8.1011792,9.13095175 L4.15836221,13.0737687 C3.9472126,13.2861784 3.9472126,13.6292281 4.15836221,13.8416378 Z" id="Shape"></path>
            <circle id="Oval" cx="9.5" cy="29.5" r="1.5"></circle>
        </g>
    </g>
</svg>