<?xml version="1.0" encoding="UTF-8"?>
<svg width="81px" height="21px" viewBox="0 0 81 21" version="1.1" xmlns="http://www.w3.org/2000/svg" xmlns:xlink="http://www.w3.org/1999/xlink">
    <!-- Generator: Sketch 48.2 (47327) - http://www.bohemiancoding.com/sketch -->
    <title>kunder-logo</title>
    <desc>Created with Sketch.</desc>
    <defs></defs>
    <g id="Bar/Home" stroke="none" stroke-width="1" fill="none" fill-rule="evenodd" transform="translate(-31.000000, -41.000000)">
        <g id="Group" transform="translate(31.000000, 41.000000)" fill="#00CE6A" fill-rule="nonzero">
            <g id="logoKunderBlanco">
                <path d="M12.6123624,19.7281396 C12.7708977,19.8857773 12.7910292,20.0884542 12.671918,20.3345023 C12.5528069,20.5813846 12.3548475,20.7039916 12.077201,20.7039916 L9.48946903,20.7039916 C9.21098377,20.7039916 8.9635345,20.5763802 8.74544369,20.3194892 L4.25361066,15.0840853 C4.11520684,14.9072643 4.04558553,14.7788188 4.04558553,14.699583 C4.04558553,14.6011637 4.11520684,14.4635436 4.25361066,14.2858885 L8.80499924,9.02129242 C8.88384747,8.92287315 9.13213555,8.87366355 9.54902459,8.87366355 L12.2852261,8.87366355 C12.4831856,8.87366355 12.6316551,8.9579037 12.7314736,9.124716 C12.8304533,9.29236237 12.8103219,9.46501312 12.671918,9.64266817 L8.15072663,14.699583 L12.6123624,19.7281396 Z M3.09353503,8.34061485e-05 C3.47016117,8.34061485e-05 3.65889365,0.197755978 3.65889365,0.591432997 L3.65889365,20.112642 C3.65889365,20.2510962 3.61443667,20.3837119 3.52468389,20.5121575 C3.43576992,20.6406029 3.30239897,20.7039916 3.12373223,20.7039916 L0.595555821,20.7039916 C0.416889075,20.7039916 0.27261358,20.6355985 0.163568148,20.4971443 C0.054522716,20.3595242 0,20.2310787 0,20.112642 L0,0.591432997 C0,0.197755978 0.198798211,8.34061485e-05 0.595555821,8.34061485e-05 L3.09353503,8.34061485e-05 Z M14.9570908,15.1732465 L14.9570908,9.43490347 C14.9570908,9.27726585 15.0116135,9.1446501 15.120659,9.03622207 C15.2297044,8.92779412 15.3630754,8.87358007 15.5224495,8.87358007 L17.9617119,8.87358007 C18.1202472,8.87358007 18.2536181,8.92779412 18.3626636,9.03622207 C18.471709,9.1446501 18.5270705,9.27726585 18.5270705,9.43490347 L18.5270705,15.261657 C18.5270705,16.0506792 18.7199971,16.6720549 19.106689,17.1249503 C19.4933808,17.5795138 20.0235094,17.8055445 20.6979134,17.8055445 C21.2926305,17.8055445 21.8135321,17.5795138 22.2597796,17.1249503 C22.7060271,16.6720549 22.9778018,16.1591071 23.0776203,15.586941 L23.0776203,9.43490347 C23.0776203,9.21888157 23.1271101,9.07041862 23.2260899,8.99201685 C23.3250696,8.912781 23.4936706,8.87358007 23.7318929,8.87358007 L25.9924886,8.87358007 C26.1510238,8.87358007 26.2852337,8.92779412 26.3942791,9.03622207 C26.5024857,9.1446501 26.5578472,9.27726585 26.5578472,9.43490347 L26.5578472,20.1425848 C26.5578472,20.280205 26.5024857,20.4086504 26.3942791,20.5270871 C26.2852337,20.6446898 26.1510238,20.7039082 25.9924886,20.7039082 L24.8919686,20.7039082 C24.6344536,20.7039082 24.4457211,20.5562793 24.3266099,20.2601875 L23.9701152,19.2843355 C23.8702967,19.4027722 23.6975017,19.5612439 23.4492136,19.7572484 C23.2017643,19.954921 22.9383777,20.1425848 22.6615701,20.3194058 C22.3830848,20.4970609 22.0064586,20.6555326 21.5308528,20.7931528 C21.0544082,20.9307729 20.5385393,21 19.9840853,21 C18.258651,21 16.9895299,20.4478513 16.1767221,19.3435539 C15.3630754,18.2400905 14.9570908,16.8497101 14.9570908,15.1732465 Z M29.5072745,20.1421678 L29.5072745,9.43532055 C29.5072745,9.27768292 29.5617972,9.1450671 29.6708426,9.03580507 C29.7798881,8.92821112 29.913259,8.87316307 30.0726331,8.87316307 L31.2033504,8.87316307 C31.4407339,8.87316307 31.6093349,8.99159977 31.7083146,9.22847325 L32.1252037,10.3227619 C33.2148192,9.15924615 34.6131172,8.57790532 36.3192587,8.57790532 C38.1034098,8.57790532 39.4320864,9.13922872 40.3052887,10.2635436 C41.1776522,11.3870244 41.6138339,12.7874136 41.6138339,14.4638772 L41.6138339,20.1421678 C41.6138339,20.280622 41.5593112,20.4082333 41.4502657,20.5266701 C41.3412203,20.6451068 41.2070106,20.7043252 41.0484753,20.7043252 L38.6100517,20.7043252 C38.4506775,20.7043252 38.3164678,20.6501112 38.2074224,20.5416832 C38.0992157,20.4332552 38.044693,20.3006395 38.044693,20.1421678 L38.044693,14.2862221 C38.044693,13.5172174 37.8509277,12.9058504 37.4642358,12.4521209 C37.0775439,11.9983915 36.5272839,11.7715267 35.8134557,11.7715267 C35.0996275,11.7715267 34.4990389,11.9641949 34.0133672,12.3486973 C33.5276957,12.7331996 33.1955265,13.1619072 33.0168598,13.6348201 L33.0168598,20.1421678 C33.0168598,20.5166614 32.7694105,20.7043252 32.2736732,20.7043252 L30.0726331,20.7043252 C29.9333905,20.7043252 29.8050524,20.6451068 29.6859413,20.5266701 C29.5668301,20.4082333 29.5072745,20.280622 29.5072745,20.1421678 Z M44.0527608,14.7887441 C44.0527608,13.0338787 44.5988268,11.5600921 45.6892811,10.3673842 C46.7797354,9.17384227 48.197326,8.57748825 49.9420529,8.57748825 C50.7951238,8.57748825 51.677553,8.75514337 52.5893405,9.10961947 L52.5893405,0.562157439 C52.5893405,0.424537294 52.6438633,0.296091826 52.7537475,0.177655096 C52.8619541,0.0592183652 52.9961638,0 53.1546992,0 L55.6837143,0 C55.8221182,0 55.9512951,0.0592183652 56.0704063,0.177655096 C56.1886786,0.296091826 56.2482342,0.424537294 56.2482342,0.562157439 L56.2482342,20.1417507 C56.2482342,20.280205 56.1886786,20.4086504 56.0704063,20.526253 C55.9512951,20.6446898 55.8221182,20.7039082 55.6837143,20.7039082 L54.5236387,20.7039082 C54.2451535,20.7039082 54.0572598,20.5170784 53.9582801,20.1417507 L53.6605022,19.2251172 C53.5606837,19.3635714 53.4080201,19.5312177 53.199995,19.7280562 C52.991131,19.9257288 52.5499164,20.1867901 51.8763511,20.512074 C51.2011083,20.837358 50.4973458,21 49.764225,21 C48.1579019,21 46.804061,20.3936373 45.7035409,19.1809119 C44.6030208,17.9681865 44.0527608,16.5044086 44.0527608,14.7887441 Z M48.32147,12.6443721 C47.7754041,13.226547 47.5036293,13.9413376 47.5036293,14.7887441 C47.5036293,15.6369847 47.7611443,16.3517753 48.2770131,16.9331162 C48.7920431,17.5152911 49.4370887,17.8055445 50.2104725,17.8055445 C50.9041692,17.8055445 51.4603009,17.6037016 51.8763511,17.1991818 C52.2924014,16.7954961 52.5700479,16.3559457 52.7092905,15.8830328 L52.7092905,12.4525379 C52.1531588,11.9988085 51.379775,11.7719437 50.3891392,11.7719437 C49.5561999,11.7719437 48.8658584,12.0630312 48.32147,12.6443721 Z M58.305586,14.7886607 C58.305586,13.0930138 58.8801715,11.6342402 60.031859,10.4115061 C61.1810301,9.18877192 62.6288179,8.57740485 64.3743837,8.57740485 C65.9211512,8.57740485 67.2347292,9.1003614 68.3151178,10.1446064 C69.3963452,11.1905195 69.9365395,12.5016641 69.9365395,14.0788744 C69.9365395,14.3349313 69.916408,14.601831 69.8761451,14.8770712 C69.836721,15.213198 69.6488273,15.3800103 69.3116253,15.3800103 L61.6968989,15.3800103 C61.736323,16.0505957 62.0190023,16.6477837 62.544098,17.1699063 C63.0691937,17.6920288 63.7385649,17.953924 64.5522116,17.953924 C65.4052824,17.953924 66.1786662,17.7070418 66.8723628,17.2141115 C67.2095648,17.017273 67.4679186,17.017273 67.6457466,17.2141115 L68.8662167,18.603658 C69.1430242,18.8805664 69.1329585,19.1366233 68.8351806,19.3726627 C67.6650392,20.4577766 66.1887319,20.9999166 64.403742,20.9999166 C62.6388836,20.9999166 61.1810301,20.3985583 60.031859,19.1958416 C58.8801715,17.993125 58.305586,16.5243427 58.305586,14.7886607 Z M61.9644796,13.3098697 L66.4563126,13.3098697 C66.4160496,12.757721 66.183699,12.2848081 65.7567442,11.890297 C65.3306282,11.495786 64.8399238,11.2989475 64.2846309,11.2989475 C63.6899139,11.2989475 63.1732062,11.4907816 62.7378633,11.875284 C62.3016816,12.2597863 62.0441666,12.7385376 61.9644796,13.3098697 Z M72.4345187,20.1421678 L72.4345187,9.43532055 C72.4345187,9.27768292 72.4890414,9.1450671 72.5989257,9.03580507 C72.7071323,8.92821112 72.8405032,8.87316307 72.9998773,8.87316307 L74.1305946,8.87316307 C74.3872707,8.87316307 74.5659375,9.00160852 74.665756,9.25766542 L75.0818062,10.4111725 C75.9340382,9.1892724 77.0546894,8.57790532 78.4429217,8.57790532 C79.1970134,8.57790532 79.8118614,8.68633327 80.2874675,8.90318932 C80.7639117,9.1200453 80.9123817,9.40612837 80.7328758,9.76060447 L79.6331945,11.6831162 C79.4545284,11.9983915 79.2263713,12.087636 78.9495637,11.9491818 C78.5922307,11.8307451 78.3036796,11.7715267 78.0864269,11.7715267 C77.5512661,11.7715267 77.0999853,11.9049766 76.7334251,12.1710421 C76.3660259,12.4371078 76.112705,12.7090118 75.9743012,12.9850861 L75.9743012,20.1421678 C75.9743012,20.5166614 75.7461446,20.7043252 75.2906702,20.7043252 L72.9998773,20.7043252 C72.8614735,20.7043252 72.7314578,20.6451068 72.6131854,20.5266701 C72.4940742,20.4082333 72.4345187,20.280622 72.4345187,20.1421678 Z" id="kunder-logo"></path>
            </g>
        </g>
    </g>
</svg>