<?xml version="1.0" encoding="UTF-8"?>
<svg width="62px" height="72px" viewBox="0 0 62 72" version="1.1" xmlns="http://www.w3.org/2000/svg" xmlns:xlink="http://www.w3.org/1999/xlink">
    <!-- Generator: Sketch 48.2 (47327) - http://www.bohemiancoding.com/sketch -->
    <title>smartphone</title>
    <desc>Created with Sketch.</desc>
    <defs></defs>
    <g id="kunderTelecom-test-Gray" stroke="none" stroke-width="1" fill="none" fill-rule="evenodd" transform="translate(-149.000000, -144.000000)">
        <g id="smartphone" transform="translate(149.000000, 144.000000)" fill-rule="nonzero">
            <path d="M19.0769231,58.8 C16.4466923,58.8 14.3076923,60.9528 14.3076923,63.6 C14.3076923,66.2472 16.4466923,68.4 19.0769231,68.4 C21.7071538,68.4 23.8461538,66.2472 23.8461538,63.6 C23.8461538,60.9528 21.7071538,58.8 19.0769231,58.8 Z M19.0769231,66 C17.7618077,66 16.6923077,64.9236 16.6923077,63.6 C16.6923077,62.2764 17.7618077,61.2 19.0769231,61.2 C20.3920385,61.2 21.4615385,62.2764 21.4615385,63.6 C21.4615385,64.9236 20.3920385,66 19.0769231,66 Z" id="Shape" fill="#9B9B9B"></path>
            <path d="M15.5,6 L20.2692308,6 C20.9273846,6 21.4615385,5.4636 21.4615385,4.8 C21.4615385,4.1364 20.9273846,3.6 20.2692308,3.6 L15.5,3.6 C14.8418462,3.6 14.3076923,4.1364 14.3076923,4.8 C14.3076923,5.4636 14.8418462,6 15.5,6 Z" id="Shape" fill="#9B9B9B"></path>
            <path d="M23.8461538,6 L25.0384615,6 C25.6966154,6 26.2307692,5.4636 26.2307692,4.8 C26.2307692,4.1364 25.6966154,3.6 25.0384615,3.6 L23.8461538,3.6 C23.188,3.6 22.6538462,4.1364 22.6538462,4.8 C22.6538462,5.4636 23.188,6 23.8461538,6 Z" id="Shape" fill="#9B9B9B"></path>
            <path d="M62,14.4 L40.5384615,14.4 L40.5384615,5.286 C40.5384615,2.3724 38.1824615,0 35.2863462,0 L5.25211538,0 C2.356,0 0,2.3724 0,5.286 L0,66.7128 C0,69.6276 2.356,72 5.25211538,72 L35.2851538,72 C38.1824615,72 40.5384615,69.6276 40.5384615,66.714 L40.5384615,39.6 L62,39.6 L62,14.4 Z M5.25211538,2.4 L35.2851538,2.4 C36.8673462,2.4 38.1538462,3.6948 38.1538462,5.286 L38.1538462,7.2 L2.38461538,7.2 L2.38461538,5.286 C2.38461538,3.6948 3.67111538,2.4 5.25211538,2.4 Z M35.2863462,69.6 L5.25211538,69.6 C3.67111538,69.6 2.38461538,68.3052 2.38461538,66.714 L2.38461538,57.6 L38.1538462,57.6 L38.1538462,66.714 C38.1538462,68.3052 36.8673462,69.6 35.2863462,69.6 Z M38.1538462,55.2 L2.38461538,55.2 L2.38461538,9.6 L38.1538462,9.6 L38.1538462,14.4 L16.6923077,14.4 L16.6923077,39.6 L21.4615385,39.6 L21.4615385,48 L32.5893462,39.6 L38.1538462,39.6 L38.1538462,55.2 Z M59.6153846,37.2 L40.5384615,37.2 L31.7952692,37.2 L23.8461538,43.2 L23.8461538,37.2 L19.0769231,37.2 L19.0769231,16.8 L40.5384615,16.8 L59.6153846,16.8 L59.6153846,37.2 Z" id="Shape" fill="#9B9B9B"></path>
            <path d="M25.0384615,25.2 L36.9615385,25.2 C37.6196923,25.2 38.1538462,24.6636 38.1538462,24 C38.1538462,23.3364 37.6196923,22.8 36.9615385,22.8 L25.0384615,22.8 C24.3803077,22.8 23.8461538,23.3364 23.8461538,24 C23.8461538,24.6636 24.3803077,25.2 25.0384615,25.2 Z" id="Shape" fill="#00CE6A"></path>
            <path d="M23.8461538,30 C23.8461538,30.6636 24.3803077,31.2 25.0384615,31.2 L53.6538462,31.2 C54.312,31.2 54.8461538,30.6636 54.8461538,30 C54.8461538,29.3364 54.312,28.8 53.6538462,28.8 L25.0384615,28.8 C24.3803077,28.8 23.8461538,29.3364 23.8461538,30 Z" id="Shape" fill="#00CE6A"></path>
        </g>
    </g>
</svg>