<?xml version="1.0" encoding="UTF-8"?>
<svg width="32px" height="32px" viewBox="0 0 32 32" version="1.1" xmlns="http://www.w3.org/2000/svg" xmlns:xlink="http://www.w3.org/1999/xlink">
    <!-- Generator: Sketch 48.2 (47327) - http://www.bohemiancoding.com/sketch -->
    <title>bag</title>
    <desc>Created with Sketch.</desc>
    <defs></defs>
    <g id="bag" stroke="none" stroke-width="1" fill="none" fill-rule="evenodd">
        <g fill="#1D1E30" fill-rule="nonzero" id="Shape">
            <path d="M32,16 C32,11.7142857 30.3214286,7.71428571 27.3214286,4.67857143 C24.2857143,1.64285714 20.2857143,0 16,0 C11.7142857,0 7.71428571,1.64285714 4.67857143,4.67857143 C1.64285714,7.71428571 0,11.7142857 0,16 C0,20.2857143 1.67857143,24.2857143 4.67857143,27.3214286 C7.71428571,30.3571429 11.7142857,32 16,32 C20.2857143,32 24.2857143,30.3214286 27.3214286,27.3214286 C30.3571429,24.2857143 32,20.2857143 32,16 Z M16,30.75 C12.0714286,30.75 8.35714286,29.2142857 5.57142857,26.4285714 C-0.178571429,20.6785714 -0.178571429,11.3214286 5.57142857,5.57142857 C8.35714286,2.78571429 12.0714286,1.25 16,1.25 C19.9285714,1.25 23.6428571,2.78571429 26.4285714,5.57142857 C32.1785714,11.3214286 32.1785714,20.6785714 26.4285714,26.4285714 C23.6428571,29.2142857 19.9285714,30.75 16,30.75 Z M19.9285714,9.03571429 C19.8571429,6.92857143 18.1071429,5.25 16,5.25 C13.8928571,5.25 12.1428571,6.92857143 12.0714286,9.03571429 L9.28571429,9.03571429 L8.14285714,22.1071429 L8.14285714,22.1785714 C8.14285714,23.6428571 9.5,24.8571429 11.1428571,24.8571429 L20.8571429,24.8571429 C22.5,24.8571429 23.8571429,23.6428571 23.8571429,22.1785714 L22.6785714,9.03571429 L19.9285714,9.03571429 Z M16,6.5 C17.4285714,6.5 18.5714286,7.60714286 18.6785714,9 L13.3214286,9 C13.4285714,7.60714286 14.5714286,6.5 16,6.5 Z M20.8571429,23.5714286 L11.1428571,23.5714286 C10.1785714,23.5714286 9.42857143,22.9642857 9.39285714,22.1785714 L10.4642857,10.2857143 L12.0714286,10.2857143 L12.0714286,11.8214286 L13.3214286,11.8214286 L13.3214286,10.2857143 L18.6428571,10.2857143 L18.6428571,11.8214286 L19.9285714,11.8214286 L19.9285714,10.2857143 L21.5357143,10.2857143 L22.6071429,22.1785714 C22.5714286,22.9642857 21.8214286,23.5714286 20.8571429,23.5714286 Z"></path>
        </g>
    </g>
</svg>