<?xml version="1.0" encoding="UTF-8"?>
<svg width="32px" height="30px" viewBox="0 0 32 30" version="1.1" xmlns="http://www.w3.org/2000/svg" xmlns:xlink="http://www.w3.org/1999/xlink">
    <!-- Generator: Sketch 48.2 (47327) - http://www.bohemiancoding.com/sketch -->
    <title>Shape</title>
    <desc>Created with Sketch.</desc>
    <defs></defs>
    <g id="star" stroke="none" stroke-width="1" fill="none" fill-rule="evenodd">
        <g fill="#1D1E30" fill-rule="nonzero" id="Shape">
            <path d="M12.1881707,9.1528503 L15.9924305,1.51735131 C16.0337071,1.4345053 16.1005157,1.36745981 16.1826435,1.32646384 C16.3928565,1.22098463 16.6486014,1.3063929 16.753708,1.51735131 L20.5962657,9.23014478 C20.8443511,9.72764793 21.3171176,10.0726973 21.8647778,10.1555433 L30.3622346,11.4396566 C30.452873,11.4533219 30.5371284,11.4964531 30.6018094,11.5622175 C30.7669159,11.7304718 30.7643627,12.0003619 30.5971285,12.1660539 L24.4749936,18.2172296 C24.0800996,18.6071183 23.8992483,19.1656884 23.9903122,19.7144365 L25.3988245,28.2206727 C25.4141437,28.3120596 25.39925,28.4055816 25.3566968,28.4875736 C25.2486116,28.6968238 24.99159,28.7788157 24.7826536,28.6699202 L17.1562616,24.6967277 C16.6647717,24.4405029 16.0796646,24.4405029 15.5877491,24.6967277 L7.96135718,28.6699202 C7.87965496,28.7126243 7.78603782,28.7275708 7.69539942,28.7126243 C7.46348425,28.6737636 7.30688832,28.4538373 7.34561177,28.2210998 L8.75412407,19.7148635 C8.84476247,19.1661154 8.66433673,18.6075453 8.26944265,18.2176566 L1.08645547,11.1176675 C0.835391345,10.8695564 0.43113555,10.8725457 0.183475684,11.1249272 C-0.0637586491,11.3768815 -0.0607799222,11.7825708 0.190284203,12.0306818 L7.37327138,19.130671 C7.4719949,19.2284634 7.51710134,19.3676789 7.49454812,19.5047592 L6.08603582,28.0114225 C5.93199309,28.9419455 6.55880234,29.8216507 7.48603747,29.9766667 C7.84944215,30.0373065 8.22220855,29.9779478 8.54944298,29.8075583 L16.1758349,25.8343658 C16.2988138,25.7703096 16.445197,25.7703096 16.5681758,25.8343658 L24.1945678,29.8075583 C25.0290368,30.2422864 26.0562721,29.9155998 26.4894641,29.0781717 C26.6592515,28.750204 26.7184005,28.3756887 26.6579749,28.0114225 L25.2490371,19.5047592 C25.2264839,19.3676789 25.2715903,19.2284634 25.3703138,19.130671 L31.4924487,13.0794953 C32.1618112,12.4171542 32.1703218,11.3358856 31.5107466,10.6637225 C31.2524484,10.4006651 30.9158523,10.2285674 30.551171,10.1734791 L22.0541397,8.88893875 C21.9171183,8.86844077 21.7988203,8.78217842 21.7371181,8.65748235 L17.8945604,0.944688891 C17.4741343,0.100855223 16.4515799,-0.241204883 15.6107279,0.180711951 C15.2813658,0.345976946 15.014557,0.614158901 14.8494504,0.944688891 L11.0451906,8.58018787 C10.8873181,8.8966255 11.0154033,9.28138974 11.3302973,9.43939503 C11.6468934,9.59740032 12.0302981,9.46928792 12.1881707,9.1528503 Z"></path>
        </g>
    </g>
</svg>