<?xml version="1.0" encoding="UTF-8"?>
<svg width="21px" height="31px" viewBox="0 0 21 31" version="1.1" xmlns="http://www.w3.org/2000/svg" xmlns:xlink="http://www.w3.org/1999/xlink">
    <!-- Generator: Sketch 48.2 (47327) - http://www.bohemiancoding.com/sketch -->
    <title>Group</title>
    <desc>Created with Sketch.</desc>
    <defs></defs>
    <g id="trafic" stroke="none" stroke-width="1" fill="none" fill-rule="evenodd">
        <g id="Group" fill="#1D1E30" fill-rule="nonzero">
            <g id="trafic" transform="translate(5.500000, 23.000000) rotate(90.000000) translate(-5.500000, -23.000000) translate(-2.000000, 18.000000)">
                <path d="M14.9125593,5.30354671 C14.9232187,5.28673729 14.9325457,5.26928136 14.9413731,5.2516638 C14.9480352,5.23857186 14.9546974,5.22580317 14.9601936,5.2120647 C14.9683548,5.19169945 14.9743507,5.17101094 14.9800135,5.14999917 C14.9835112,5.13771537 14.9875085,5.12607808 14.9900068,5.11347102 C15.0033311,5.04477871 15.0033311,4.9744701 14.9900068,4.90577778 C14.9875085,4.89300909 14.9835112,4.88137181 14.979847,4.86892638 C14.9743507,4.84807624 14.9683548,4.82738773 14.9601936,4.80718411 C14.9546974,4.79344564 14.9478687,4.78035369 14.94104,4.76710012 C14.9323792,4.74980582 14.9233853,4.73267315 14.9127258,4.71634862 C14.9037319,4.70293341 14.8944049,4.69000309 14.8847448,4.6772344 C14.8784157,4.66915296 14.8732526,4.66010173 14.8665904,4.65218191 L11.0142015,0.198656976 C10.8106728,-0.0365131906 10.4492511,-0.0673843259 10.2069153,0.130126289 C9.96441301,0.327475274 9.93276779,0.678371791 10.1362965,0.913541958 L13.1985543,4.4535399 L0.572945004,4.4535399 C0.256492822,4.4535399 0,4.70261015 0,5.00954359 C0,5.31680028 0.256659375,5.56554728 0.572945004,5.56554728 L13.1985543,5.56554728 L10.1526188,9.08631137 C9.94909006,9.32148154 9.98073528,9.67221643 10.223071,9.86972704 C10.3306648,9.95732995 10.4612429,10 10.5911549,10 C10.7545441,10 10.9169341,9.93243909 11.0303572,9.80151961 L14.8665904,5.36706689 C14.8735857,5.35882382 14.8787488,5.34961096 14.8852444,5.34120626 C14.8945715,5.32892246 14.9037319,5.31647702 14.9125593,5.30354671 Z" id="Shape"></path>
            </g>
            <g id="trafic" transform="translate(12.500000, 15.000000) rotate(-90.000000) translate(-12.500000, -15.000000) translate(-2.000000, 7.000000)">
                <path d="M28.8717536,8.95532006 C28.8873874,8.93010594 28.9010671,8.90392204 28.9140138,8.8774957 C28.923785,8.85785778 28.9335561,8.83870475 28.9416173,8.81809705 C28.953587,8.78754918 28.9623811,8.75651641 28.9706865,8.72499876 C28.9758164,8.70657306 28.9816791,8.68911713 28.9853433,8.67020654 C29.0048856,8.56716806 29.0048856,8.46170515 28.9853433,8.35866668 C28.9816791,8.33951364 28.9758164,8.32205771 28.9704423,8.30338956 C28.9623811,8.27211436 28.953587,8.24108159 28.9416173,8.21077616 C28.9335561,8.19016846 28.9235407,8.17053054 28.9135253,8.15065018 C28.9008228,8.12470873 28.8876317,8.09900972 28.8719979,8.07452293 C28.8588068,8.05440012 28.8451272,8.03500464 28.830959,8.01585161 C28.8247706,8.00777016 26.932505,5.76848144 23.1541622,1.29798546 C22.8556534,0.945230214 22.3255682,0.898923511 21.9701425,1.19518943 C21.6144724,1.49121291 21.5680594,2.01755769 21.8665682,2.37031294 L26.3578797,7.68030984 L7.84031934,7.68030984 C7.37618947,7.68030984 7,8.05391523 7,8.51431538 C7,8.97520042 7.37643375,9.34832092 7.84031934,9.34832092 L26.3578797,9.34832092 L21.8905075,14.6294671 C21.5919988,14.9822223 21.6384117,15.5083246 21.9938375,15.8045906 C22.1516417,15.9359949 22.3431563,16 22.5336938,16 C22.7733314,16 23.0115033,15.8986586 23.1778572,15.7022794 L28.8043326,9.05060034 C28.8453715,8.99338368 28.8588068,8.97471554 28.8717536,8.95532006 Z" id="Shape"></path>
            </g>
        </g>
    </g>
</svg>